<?xml version="1.0" encoding="iso-8859-1"?>
<!-- Generator: Adobe Illustrator 19.0.0, SVG Export Plug-In . SVG Version: 6.00 Build 0)  -->
<svg version="1.1" id="Layer_1" xmlns="http://www.w3.org/2000/svg" xmlns:xlink="http://www.w3.org/1999/xlink" x="0px" y="0px"
	 viewBox="0 0 512 512" style="enable-background:new 0 0 512 512;" xml:space="preserve">
<path style="fill:#BEC130;" d="M511.117,234.766C500.322,103.317,390.233,0,256,0C114.616,0,0,114.616,0,256
	c0,124.526,88.917,228.267,206.72,251.242L511.117,234.766z"/>
<path style="fill:#A0AD2F;" d="M512,256c0-7.151-0.308-14.23-0.883-21.234l-61.289-61.289L85.783,330.653l-41.262-7.87v22.261
	L206.72,507.242C222.669,510.353,239.142,512,256,512C397.384,512,512,397.384,512,256z"/>
<path style="fill:#FFF3AD;" d="M256,89.043l-22.261,111.304l100.174-33.391C333.913,123.926,299.03,89.043,256,89.043z"/>
<path style="fill:#FFFFFF;" d="M178.087,166.957L256,200.348V89.043C212.97,89.043,178.087,123.926,178.087,166.957z"/>
<path style="fill:#FA690E;" d="M434.087,166.957c-89.043,0-89.043,0-178.087,0l-22.261,64L256,333.913h178.087V211.478
	c12.295,0,22.261-9.966,22.261-22.261C456.348,176.923,446.382,166.957,434.087,166.957z"/>
<g>
	<rect x="77.913" y="300.522" style="fill:#FC870B;" width="178.087" height="33.391"/>
	<path style="fill:#FC870B;" d="M77.913,166.957v22.261L256,278.261V166.957C166.957,166.957,166.957,166.957,77.913,166.957z"/>
</g>
<polygon style="fill:#FFD23E;" points="411.826,189.217 367.304,189.217 322.783,200.349 278.261,189.217 256,189.217 
	233.739,244.87 256,300.522 300.522,300.522 345.043,289.392 389.565,300.522 411.826,300.522 411.826,256.001 389.565,244.871 
	411.826,233.74 "/>
<rect x="356.174" y="211.478" style="fill:#FFC207;" width="22.261" height="22.261"/>
<polygon style="fill:#FFE376;" points="211.478,189.217 166.957,200.349 122.435,189.217 77.913,189.217 77.913,300.522 
	144.696,300.522 189.217,289.392 233.739,300.522 256,300.522 256,189.217 "/>
<rect x="144.696" y="278.261" style="fill:#FFF3AD;" width="89.043" height="22.261"/>
<g>
	<rect x="66.783" y="256" style="fill:#FFD23E;" width="111.304" height="22.261"/>
	<rect x="178.087" y="233.739" style="fill:#FFD23E;" width="77.913" height="22.261"/>
</g>
<rect x="66.783" y="211.478" style="fill:#FFF3AD;" width="89.043" height="22.261"/>
<rect x="122.435" y="189.217" style="fill:#FFD23E;" width="89.043" height="22.261"/>
<g>
	<rect x="300.522" y="278.261" style="fill:#FFC207;" width="89.043" height="22.261"/>
	<rect x="256" y="256" style="fill:#FFC207;" width="77.913" height="22.261"/>
</g>
<rect x="333.913" y="233.739" style="fill:#FFE376;" width="77.913" height="22.261"/>
<polygon style="fill:#FDA409;" points="311.652,233.74 256,233.74 244.87,222.61 256,211.479 311.652,211.479 "/>
<rect x="222.609" y="211.478" style="fill:#FFC207;" width="33.391" height="22.261"/>
<g>
	<rect x="278.261" y="189.217" style="fill:#FFE376;" width="89.043" height="22.261"/>
	<polygon style="fill:#FFE376;" points="434.087,345.043 411.826,384 256,384 234.296,339.478 	"/>
</g>
<g>
	<polygon style="fill:#FFF3AD;" points="100.174,384 256,384 256,333.913 77.913,345.043 	"/>
	<polygon style="fill:#FFF3AD;" points="256,322.783 245.009,333.913 256,345.043 467.478,345.043 467.478,322.783 	"/>
</g>
<g>
	<rect x="44.522" y="322.783" style="fill:#FFFFFF;" width="211.478" height="22.261"/>
	<path style="fill:#FFFFFF;" d="M200.348,239.304c0,9.22,7.475,16.696,16.696,16.696c9.22,0,16.696-7.475,16.696-16.696v-83.478
		h-33.391V239.304z"/>
</g>
<g>
</g>
<g>
</g>
<g>
</g>
<g>
</g>
<g>
</g>
<g>
</g>
<g>
</g>
<g>
</g>
<g>
</g>
<g>
</g>
<g>
</g>
<g>
</g>
<g>
</g>
<g>
</g>
<g>
</g>
</svg>
