<?xml version="1.0" encoding="iso-8859-1"?>
<!-- Generator: Adobe Illustrator 19.0.0, SVG Export Plug-In . SVG Version: 6.00 Build 0)  -->
<svg version="1.1" id="Layer_1" xmlns="http://www.w3.org/2000/svg" xmlns:xlink="http://www.w3.org/1999/xlink" x="0px" y="0px"
	 viewBox="0 0 495 495" style="enable-background:new 0 0 495 495;" xml:space="preserve">
<g>
	<path style="fill:#EBE5DD;" d="M190.146,301.846c-10.729-6.739-18.481-11.607-36.081-11.607c-17.593,0-25.333,4.867-36.046,11.602
		c-12.57,7.903-28.215,17.739-57.337,17.739c-7.528,0-14.734-1.389-21.391-3.908l10.502,103.908H247.5v-100
		C218.382,319.579,202.726,309.746,190.146,301.846z"/>
	<path style="fill:#D9CCBC;" d="M376.98,301.84c-10.713-6.735-18.453-11.602-36.046-11.602c-17.6,0-25.352,4.869-36.081,11.607
		c-12.579,7.9-28.235,17.733-57.354,17.733v100h194.917l10.286-102.857c-5.803,1.851-11.978,2.857-18.385,2.857
		C405.195,319.579,389.551,309.744,376.98,301.84z"/>
	<path style="fill:#CC7400;" d="M118.02,301.84c10.713-6.735,18.453-11.602,36.046-11.602c17.6,0,25.352,4.869,36.081,11.607
		c12.579,7.9,28.235,17.733,57.354,17.733l1-133.261h-21V76.278c-10.184,0.872-20.202,2.408-30,4.561v85.479h-40V93.549
		c-49.209,20.805-89.346,58.315-110.836,106.214C19.937,206.125,0,230.202,0,258.849c0,25.954,16.357,48.146,39.292,56.822
		c6.657,2.519,13.864,3.908,21.391,3.908C89.805,319.579,105.449,309.744,118.02,301.84z"/>
	<path style="fill:#AA6100;" d="M495,258.849c0-28.647-19.937-52.725-46.664-59.086c-21.49-47.899-61.626-85.409-110.836-106.214
		v72.769h-40V80.839c-9.798-2.153-19.816-3.689-30-4.561v110.04h-19l-1,133.261c29.118,0,44.774-9.833,57.354-17.733
		c10.729-6.739,18.481-11.607,36.081-11.607c17.593,0,25.333,4.867,36.046,11.602c12.57,7.903,28.215,17.739,57.337,17.739
		c6.407,0,12.583-1.006,18.385-2.857C477.202,308.909,495,285.924,495,258.849z"/>
	<path style="fill:#FFA733;" d="M267.5,186.318V76.278c-6.604-0.566-13.275-0.857-20-0.857s-13.396,0.292-20,0.857v110.04H267.5z"/>
	<path style="fill:#FFA733;" d="M337.5,166.318V93.549c-12.777-5.402-26.167-9.671-40-12.71v85.479H337.5z"/>
	<path style="fill:#FFA733;" d="M197.5,166.318V80.839c-13.833,3.039-27.223,7.308-40,12.71v72.769H197.5z"/>
</g>
<g>
</g>
<g>
</g>
<g>
</g>
<g>
</g>
<g>
</g>
<g>
</g>
<g>
</g>
<g>
</g>
<g>
</g>
<g>
</g>
<g>
</g>
<g>
</g>
<g>
</g>
<g>
</g>
<g>
</g>
</svg>
