<?xml version="1.0" encoding="iso-8859-1"?>
<!-- Generator: Adobe Illustrator 19.0.0, SVG Export Plug-In . SVG Version: 6.00 Build 0)  -->
<svg version="1.1" id="Layer_1" xmlns="http://www.w3.org/2000/svg" xmlns:xlink="http://www.w3.org/1999/xlink" x="0px" y="0px"
	 viewBox="0 0 298.778 298.778" style="enable-background:new 0 0 298.778 298.778;" xml:space="preserve">
<g>
	<g>
		<g>
			<path d="M253.562,100.886c-27.93-15.086-64.926-23.393-104.173-23.393s-76.243,8.308-104.173,23.393
				C16.058,116.634,0,138.01,0,161.076c0,10.324,6.304,19.528,16.094,25.468l10.568,30.503c0.879,2.537,3.268,4.238,5.953,4.238
				h233.547c2.684,0,5.074-1.701,5.953-4.238l10.568-30.503c9.789-5.94,16.094-15.144,16.094-25.468
				C298.778,138.01,282.72,116.634,253.562,100.886z M261.678,208.686H37.1l-5.62-16.223c3.211,0.636,7.094,1.026,10.592,1.026
				c15.007,0,28.309-5.921,35.772-15.223c7.463,9.302,20.765,15.223,35.772,15.223c15.008,0,28.309-5.921,35.772-15.222
				c7.463,9.301,20.765,15.222,35.772,15.222c15.007,0,28.309-5.921,35.772-15.222c7.463,9.301,20.765,15.222,35.772,15.222
				c3.654,0,7.665-0.446,10.592-1.026L261.678,208.686z M256.706,180.889c-10.508,0-23.65-4.57-28.122-13.996l-0.001-0.001
				c-0.854-1.802-1.35-3.779-1.35-5.816c0-3.48-2.82-6.3-6.3-6.3c-3.48,0-6.3,2.82-6.3,6.3c0,2.037-0.501,4.022-1.35,5.816
				l-0.001,0.001c-3.9,8.222-15.532,13.996-28.122,13.996c-13.537,0-29.472-7.556-29.472-19.813c0-3.48-2.82-6.3-6.3-6.3
				c-3.479,0-6.3,2.82-6.3,6.3c0,11.872-15.192,19.813-29.472,19.813c-13.579,0-29.472-7.631-29.472-19.813
				c0-3.48-2.821-6.3-6.3-6.3c-3.479,0-6.3,2.82-6.3,6.3c0,10.985-13.966,19.813-29.472,19.813c-15.697,0-29.472-8.91-29.472-19.813
				c0-18.22,13.71-35.659,38.604-49.105c26.122-14.109,60.992-21.879,98.185-21.879c37.193,0,72.063,7.77,98.185,21.879
				c24.894,13.446,38.604,30.885,38.604,49.105C286.178,171.946,272.462,180.889,256.706,180.889z"/>
			<path d="M149.389,108.089c-3.479,0-6.3,2.82-6.3,6.3v14c0,3.48,2.821,6.3,6.3,6.3c3.48,0,6.3-2.82,6.3-6.3v-14
				C155.689,110.909,152.868,108.089,149.389,108.089z"/>
			<path d="M94.115,109.549l-16.8,14c-2.673,2.228-3.034,6.2-0.806,8.873c2.229,2.674,6.2,3.032,8.873,0.806l16.8-14
				c2.673-2.228,3.034-6.2,0.806-8.873C100.761,107.683,96.788,107.322,94.115,109.549z"/>
			<path d="M221.463,123.549l-16.8-14c-2.672-2.225-6.644-1.866-8.873,0.806c-2.227,2.674-1.866,6.645,0.806,8.873l16.8,14
				c2.669,2.224,6.643,1.869,8.873-0.806C224.496,129.749,224.135,125.777,221.463,123.549z"/>
		</g>
	</g>
</g>
<g>
</g>
<g>
</g>
<g>
</g>
<g>
</g>
<g>
</g>
<g>
</g>
<g>
</g>
<g>
</g>
<g>
</g>
<g>
</g>
<g>
</g>
<g>
</g>
<g>
</g>
<g>
</g>
<g>
</g>
</svg>
