<?xml version="1.0" encoding="iso-8859-1"?>
<!-- Generator: Adobe Illustrator 19.0.0, SVG Export Plug-In . SVG Version: 6.00 Build 0)  -->
<svg version="1.1" id="Layer_1" xmlns="http://www.w3.org/2000/svg" xmlns:xlink="http://www.w3.org/1999/xlink" x="0px" y="0px"
	 viewBox="0 0 512 512" style="enable-background:new 0 0 512 512;" xml:space="preserve">
<g>
	<g>
		<path d="M256,82.36c-95.745,0-173.64,77.894-173.64,173.64S160.255,429.64,256,429.64S429.64,351.745,429.64,256
			S351.745,82.36,256,82.36z M256,396.249c-77.333,0-140.249-62.915-140.249-140.249S178.667,115.751,256,115.751
			S396.249,178.667,396.249,256S333.333,396.249,256,396.249z"/>
	</g>
</g>
<g>
	<g>
		<path d="M479.902,197.433c-8.643-9.223-16.806-17.934-20.089-25.854c-3.556-8.577-4.055-21.543-4.536-34.082
			c-0.829-21.574-1.769-46.028-18.257-62.515c-16.487-16.489-40.941-17.428-62.516-18.257c-12.54-0.483-25.505-0.981-34.083-4.537
			c-7.918-3.283-16.63-11.447-25.854-20.089C298.51,17.052,280.312,0,256,0s-42.51,17.052-58.567,32.098
			c-9.223,8.643-17.934,16.806-25.854,20.089c-8.577,3.556-21.543,4.055-34.082,4.536c-21.574,0.829-46.028,1.769-62.515,18.257
			c-16.489,16.488-17.428,40.941-18.257,62.516c-0.483,12.54-0.981,25.505-4.537,34.082c-3.283,7.918-11.447,16.63-20.089,25.854
			C17.052,213.49,0,231.688,0,256s17.052,42.51,32.098,58.567c8.643,9.223,16.806,17.935,20.089,25.854
			c3.556,8.577,4.055,21.543,4.536,34.082c0.829,21.574,1.769,46.028,18.257,62.515c16.488,16.489,40.941,17.428,62.516,18.257
			c12.54,0.483,25.505,0.981,34.082,4.537c7.918,3.284,16.63,11.447,25.854,20.089C213.49,494.948,231.688,512,256,512
			s42.51-17.052,58.567-32.098c9.223-8.643,17.935-16.806,25.854-20.089c8.577-3.556,21.543-4.055,34.082-4.536
			c21.574-0.829,46.028-1.769,62.515-18.257c16.489-16.487,17.428-40.941,18.257-62.516c0.483-12.54,0.981-25.505,4.537-34.083
			c3.284-7.918,11.447-16.63,20.089-25.854C494.948,298.51,512,280.312,512,256S494.948,213.49,479.902,197.433z M455.536,291.735
			c-10.303,10.996-20.956,22.367-26.566,35.893c-5.85,14.107-6.466,30.113-7.06,45.591c-0.623,16.2-1.267,32.952-8.503,40.188
			c-7.236,7.236-23.987,7.879-40.185,8.501c-15.479,0.594-31.486,1.21-45.593,7.06c-13.527,5.61-24.898,16.263-35.893,26.566
			c-12.107,11.344-24.625,23.073-35.737,23.073c-11.112,0-23.63-11.729-35.735-23.072c-10.996-10.303-22.367-20.956-35.893-26.566
			c-14.107-5.85-30.113-6.466-45.591-7.06c-16.2-0.623-32.952-1.267-40.188-8.503s-7.879-23.987-8.501-40.185
			c-0.594-15.479-1.21-31.486-7.06-45.593c-5.61-13.527-16.263-24.898-26.566-35.893C45.121,279.63,33.391,267.112,33.391,256
			c0-11.112,11.729-23.63,23.072-35.735c10.303-10.996,20.956-22.367,26.566-35.893c5.85-14.107,6.466-30.113,7.06-45.591
			c0.623-16.2,1.267-32.952,8.503-40.188s23.987-7.879,40.185-8.501c15.479-0.594,31.486-1.21,45.593-7.06
			c13.527-5.61,24.898-16.263,35.893-26.566C232.37,45.121,244.888,33.391,256,33.391c11.112,0,23.63,11.729,35.735,23.072
			c10.996,10.303,22.367,20.956,35.893,26.566c14.107,5.85,30.113,6.466,45.591,7.06c16.2,0.623,32.952,1.267,40.188,8.503
			c7.236,7.236,7.879,23.987,8.501,40.185c0.594,15.479,1.21,31.486,7.06,45.593c5.61,13.527,16.263,24.898,26.566,35.893
			c11.344,12.107,23.073,24.625,23.073,35.736C478.609,267.112,466.879,279.63,455.536,291.735z"/>
	</g>
</g>
<g>
	<g>
		
			<rect x="198.582" y="188.314" transform="matrix(0.7071 -0.7071 0.7071 0.7071 -89.1627 215.2743)" width="33.391" height="53.904"/>
	</g>
</g>
<g>
	<g>
		
			<rect x="188.309" y="280.031" transform="matrix(0.7071 -0.7071 0.7071 0.7071 -146.7689 239.1225)" width="53.904" height="33.391"/>
	</g>
</g>
<g>
	<g>
		
			<rect x="280.027" y="269.791" transform="matrix(0.7071 -0.7071 0.7071 0.7071 -122.9209 296.7289)" width="33.391" height="53.904"/>
	</g>
</g>
<g>
	<g>
		
			<rect x="269.786" y="198.576" transform="matrix(0.7071 -0.7071 0.7071 0.7071 -65.307 272.8769)" width="53.904" height="33.391"/>
	</g>
</g>
<g>
</g>
<g>
</g>
<g>
</g>
<g>
</g>
<g>
</g>
<g>
</g>
<g>
</g>
<g>
</g>
<g>
</g>
<g>
</g>
<g>
</g>
<g>
</g>
<g>
</g>
<g>
</g>
<g>
</g>
</svg>
