<?xml version="1.0" encoding="iso-8859-1"?>
<!-- Generator: Adobe Illustrator 19.0.0, SVG Export Plug-In . SVG Version: 6.00 Build 0)  -->
<svg version="1.1" id="Layer_1" xmlns="http://www.w3.org/2000/svg" xmlns:xlink="http://www.w3.org/1999/xlink" x="0px" y="0px"
	 viewBox="0 0 512 512" style="enable-background:new 0 0 512 512;" xml:space="preserve">
<path style="fill:#C66500;" d="M216.46,41.1C85.672,52.63,7.605,142.675,7.605,142.675v328.342h496.791V142.675L216.46,41.1z"/>
<g>
	<path style="fill:#FFE285;" d="M7.605,258.069c31.047,0,31.047,20.277,62.096,20.277c31.049,0,31.049-20.277,62.098-20.277
		s31.048,20.277,62.098,20.277c31.047,0,31.047-20.277,62.096-20.277s31.048,20.277,62.098,20.277s31.049-20.277,62.1-20.277
		c31.051,0,31.051,20.277,62.103,20.277s31.051-20.277,62.103-20.277v-81.117c-31.051,0-31.051,20.277-62.103,20.277
		s-31.051-20.277-62.103-20.277c-31.05,0-31.05,20.277-62.1,20.277s-31.049-20.277-62.098-20.277s-31.048,20.277-62.096,20.277
		c-31.048,0-31.048-20.277-62.098-20.277S100.75,197.23,69.701,197.23c-31.048,0-31.048-20.277-62.096-20.277
		C7.605,176.952,7.605,258.069,7.605,258.069z"/>
	<circle style="fill:#FFE285;" cx="88.52" cy="376.355" r="16.898"/>
	<circle style="fill:#FFE285;" cx="172.255" cy="376.355" r="16.898"/>
	<circle style="fill:#FFE285;" cx="255.999" cy="376.355" r="16.898"/>
	<circle style="fill:#FFE285;" cx="339.744" cy="376.355" r="16.898"/>
	<circle style="fill:#FFE285;" cx="423.489" cy="376.355" r="16.898"/>
	<rect x="7.604" y="433.811" style="fill:#FFE285;" width="496.791" height="37.201"/>
</g>
<g>
	<path style="fill:#53180F;" d="M217.434,33.381l-1.642,0.146c-69.162,6.096-123.567,34.014-157.029,56.36
		c-36.299,24.242-56.08,46.856-56.904,47.806l-1.858,2.143v29.511v96.325v160.539H0v52.408h0.001H512v-52.408V265.673v-96.325
		v-32.055L217.434,33.381z M67.643,102.246c31.643-21.063,82.885-47.335,147.852-53.422l244.488,86.247H119.132v15.208h377.661
		v19.489c-12.982,1.437-20.695,6.444-27.605,10.958c-7.314,4.776-13.631,8.901-26.894,8.901c-13.262,0-19.58-4.124-26.894-8.901
		c-8.166-5.333-17.42-11.377-35.208-11.377c-17.788,0-27.043,6.044-35.208,11.377c-7.314,4.776-13.63,8.901-26.892,8.901
		c-13.261,0-19.578-4.124-26.892-8.901c-8.165-5.333-17.419-11.377-35.207-11.377c-17.787,0-27.041,6.044-35.206,11.377
		c-7.313,4.776-13.629,8.901-26.89,8.901c-13.261,0-19.578-4.124-26.891-8.901c-8.165-5.333-17.419-11.377-35.207-11.377
		c-17.787,0-27.042,6.044-35.207,11.377c-7.313,4.776-13.629,8.901-26.892,8.901c-13.261,0-19.577-4.124-26.89-8.901
		c-6.909-4.513-14.621-9.52-27.602-10.958v-19.489h83.643v-15.208H25.886C35.093,126.501,49.195,114.526,67.643,102.246z
		 M496.792,311.301H15.209v-45.088c8.384,1.26,13.534,4.604,19.286,8.361c8.165,5.333,17.419,11.377,35.206,11.377
		c17.788,0,27.042-6.044,35.207-11.377c7.313-4.776,13.629-8.901,26.891-8.901s19.578,4.124,26.891,8.901
		c8.165,5.333,17.419,11.377,35.206,11.377s27.041-6.044,35.205-11.377c7.313-4.776,13.629-8.901,26.891-8.901
		c13.261,0,19.578,4.124,26.891,8.901c8.166,5.333,17.42,11.377,35.207,11.377c17.788,0,27.043-6.044,35.207-11.377
		c7.314-4.776,13.63-8.901,26.893-8.901c13.262,0,19.58,4.124,26.894,8.901c8.166,5.333,17.42,11.377,35.208,11.377
		c17.788,0,27.044-6.044,35.209-11.377c5.754-3.757,10.905-7.102,19.29-8.361v45.088H496.792z M496.792,210.326
		c-12.982,1.437-20.695,6.444-27.605,10.958c-7.314,4.776-13.631,8.901-26.894,8.901c-13.262,0-19.58-4.124-26.894-8.901
		c-8.166-5.333-17.42-11.377-35.208-11.377s-27.043,6.044-35.208,11.377c-7.314,4.776-13.63,8.901-26.892,8.901
		c-13.261,0-19.578-4.124-26.892-8.901c-8.165-5.333-17.419-11.377-35.207-11.377c-17.787,0-27.041,6.044-35.206,11.377
		c-7.313,4.776-13.629,8.901-26.89,8.901c-13.261,0-19.578-4.124-26.891-8.901c-8.165-5.333-17.419-11.377-35.207-11.377
		c-17.787,0-27.042,6.044-35.207,11.377c-7.313,4.776-13.629,8.901-26.892,8.901c-13.261,0-19.577-4.124-26.89-8.901
		c-6.909-4.513-14.621-9.52-27.602-10.958v-25.241c8.393,1.258,13.53,4.614,19.286,8.373c8.165,5.333,17.419,11.377,35.206,11.377
		c17.788,0,27.042-6.044,35.207-11.377c7.313-4.776,13.629-8.901,26.891-8.901s19.578,4.124,26.891,8.901
		c8.165,5.333,17.419,11.377,35.206,11.377s27.041-6.044,35.205-11.377c7.313-4.776,13.629-8.901,26.891-8.901
		s19.578,4.124,26.891,8.901c8.166,5.333,17.42,11.377,35.207,11.377c17.788,0,27.043-6.044,35.207-11.377
		c7.314-4.776,13.63-8.901,26.893-8.901s19.58,4.124,26.894,8.901c8.166,5.333,17.42,11.377,35.208,11.377
		c17.788,0,27.044-6.044,35.209-11.377c5.757-3.758,10.897-7.115,19.29-8.373v25.241H496.792z M469.187,261.842
		c-7.314,4.776-13.631,8.901-26.894,8.901c-13.262,0-19.58-4.124-26.894-8.901c-8.166-5.333-17.42-11.377-35.208-11.377
		s-27.043,6.044-35.208,11.377c-7.314,4.776-13.63,8.901-26.892,8.901c-13.261,0-19.578-4.124-26.892-8.901
		c-8.165-5.333-17.419-11.377-35.207-11.377c-17.787,0-27.041,6.044-35.206,11.377c-7.313,4.776-13.629,8.901-26.89,8.901
		c-13.261,0-19.578-4.124-26.891-8.901c-8.165-5.333-17.419-11.377-35.207-11.377c-17.787,0-27.042,6.044-35.207,11.377
		c-7.313,4.776-13.629,8.901-26.892,8.901c-13.261,0-19.577-4.124-26.89-8.901c-6.914-4.515-14.608-9.54-27.602-10.974v-25.213
		c8.384,1.26,13.534,4.604,19.286,8.361c8.165,5.333,17.419,11.377,35.206,11.377c17.788,0,27.042-6.044,35.207-11.377
		c7.313-4.776,13.629-8.901,26.891-8.901s19.578,4.124,26.891,8.901c8.165,5.333,17.419,11.377,35.206,11.377
		s27.041-6.044,35.205-11.377c7.313-4.776,13.629-8.901,26.891-8.901s19.578,4.124,26.891,8.901
		c8.166,5.333,17.42,11.377,35.207,11.377c17.788,0,27.043-6.044,35.208-11.377c7.314-4.776,13.63-8.901,26.892-8.901
		c13.262,0,19.58,4.124,26.894,8.901c8.166,5.333,17.42,11.377,35.208,11.377c17.788,0,27.044-6.044,35.209-11.377
		c5.754-3.757,10.905-7.102,19.29-8.361v25.213C483.796,252.301,476.101,257.326,469.187,261.842z M496.792,463.412H15.209V441.42
		h481.583V463.412z M15.209,426.212v-99.703h481.583v99.703H15.209z"/>
	<path style="fill:#53180F;" d="M88.516,351.859c-13.511,0-24.502,10.991-24.502,24.501c0,13.51,10.991,24.501,24.502,24.501
		s24.501-10.991,24.501-24.501C113.017,362.851,102.026,351.859,88.516,351.859z M88.516,385.653c-5.124,0-9.294-4.169-9.294-9.293
		s4.169-9.293,9.294-9.293s9.293,4.169,9.293,9.293C97.809,381.484,93.64,385.653,88.516,385.653z"/>
	<path style="fill:#53180F;" d="M172.258,351.859c-13.511,0-24.502,10.991-24.502,24.501c0,13.51,10.991,24.501,24.502,24.501
		c13.511,0,24.502-10.991,24.502-24.501C196.76,362.851,185.768,351.859,172.258,351.859z M172.258,385.653
		c-5.124,0-9.294-4.169-9.294-9.293s4.169-9.293,9.294-9.293s9.294,4.169,9.294,9.293
		C181.552,381.484,177.382,385.653,172.258,385.653z"/>
	<path style="fill:#53180F;" d="M256.001,351.859c-13.511,0-24.502,10.991-24.502,24.501c0,13.51,10.991,24.501,24.502,24.501
		s24.501-10.991,24.501-24.501C280.501,362.851,269.511,351.859,256.001,351.859z M256.001,385.653
		c-5.124,0-9.294-4.169-9.294-9.293s4.169-9.293,9.294-9.293c5.124,0,9.293,4.169,9.293,9.293
		C265.294,381.484,261.125,385.653,256.001,385.653z"/>
	<path style="fill:#53180F;" d="M339.743,351.859c-13.511,0-24.502,10.991-24.502,24.501c0,13.51,10.991,24.501,24.502,24.501
		s24.502-10.991,24.502-24.501C364.245,362.851,353.253,351.859,339.743,351.859z M339.743,385.653
		c-5.124,0-9.294-4.169-9.294-9.293s4.169-9.293,9.294-9.293c5.125,0,9.294,4.169,9.294,9.293
		C349.036,381.484,344.867,385.653,339.743,385.653z"/>
	<path style="fill:#53180F;" d="M423.485,351.859c-13.511,0-24.502,10.991-24.502,24.501c0,13.51,10.991,24.501,24.502,24.501
		s24.502-10.991,24.502-24.501C447.987,362.851,436.996,351.859,423.485,351.859z M423.485,385.653
		c-5.124,0-9.294-4.169-9.294-9.293s4.169-9.293,9.294-9.293c5.125,0,9.294,4.169,9.294,9.293
		C432.779,381.484,428.609,385.653,423.485,385.653z"/>
</g>
<g>
</g>
<g>
</g>
<g>
</g>
<g>
</g>
<g>
</g>
<g>
</g>
<g>
</g>
<g>
</g>
<g>
</g>
<g>
</g>
<g>
</g>
<g>
</g>
<g>
</g>
<g>
</g>
<g>
</g>
</svg>
