<?xml version="1.0" standalone="no"?><!-- Generator: Gravit.io --><svg xmlns="http://www.w3.org/2000/svg" xmlns:xlink="http://www.w3.org/1999/xlink" style="isolation:isolate" viewBox="0 0 200 200" width="200" height="200"><defs><clipPath id="_clipPath_8a48Ef767uezku1eA0UTHTB7A83C7yv7"><rect width="200" height="200"/></clipPath></defs><g clip-path="url(#_clipPath_8a48Ef767uezku1eA0UTHTB7A83C7yv7)"><path d=" M 16.076 57.238 C 14.682 51.91 15.608 46.025 19.098 41.222 C 22.588 36.418 27.899 33.719 33.397 33.397 C 33.719 27.899 36.418 22.589 41.222 19.098 C 46.025 15.608 51.91 14.682 57.238 16.076 C 59.243 10.946 63.451 6.729 69.099 4.894 C 74.746 3.06 80.628 3.997 85.265 6.969 C 88.757 2.71 94.062 0 100 0 C 105.938 0 111.243 2.71 114.735 6.969 C 119.372 3.997 125.255 3.059 130.902 4.894 C 136.549 6.729 140.757 10.945 142.762 16.076 C 148.09 14.682 153.975 15.608 158.778 19.098 C 163.582 22.588 166.281 27.899 166.603 33.397 C 172.101 33.719 177.411 36.418 180.902 41.222 C 184.392 46.025 185.318 51.91 183.924 57.238 C 189.054 59.243 193.271 63.451 195.106 69.099 C 196.94 74.746 196.003 80.628 193.031 85.265 C 197.29 88.757 200 94.062 200 100 C 200 105.938 197.29 111.243 193.031 114.735 C 196.003 119.372 196.94 125.254 195.106 130.901 C 193.271 136.549 189.054 140.757 183.924 142.762 C 185.318 148.09 184.392 153.975 180.902 158.778 C 177.411 163.582 172.101 166.281 166.603 166.603 C 166.281 172.101 163.582 177.412 158.778 180.902 C 153.975 184.392 148.09 185.318 142.762 183.924 C 140.757 189.055 136.549 193.271 130.902 195.106 C 125.255 196.941 119.372 196.003 114.735 193.031 C 111.243 197.29 105.938 200 100 200 C 94.062 200 88.757 197.29 85.265 193.031 C 80.628 196.003 74.746 196.94 69.099 195.106 C 63.451 193.271 59.243 189.054 57.238 183.924 C 51.91 185.318 46.025 184.392 41.222 180.902 C 36.418 177.411 33.719 172.101 33.397 166.603 C 27.899 166.281 22.588 163.582 19.098 158.778 C 15.608 153.975 14.682 148.09 16.076 142.762 C 10.945 140.757 6.729 136.549 4.894 130.902 C 3.06 125.255 3.997 119.372 6.969 114.735 C 2.71 111.243 0 105.938 0 100 C 0 94.062 2.71 88.758 6.969 85.265 C 3.997 80.628 3.059 74.745 4.894 69.098 C 6.729 63.451 10.945 59.243 16.076 57.238 Z " fill="rgb(255,241,146)"/></g></svg>