<?xml version="1.0" standalone="no"?><!-- Generator: Gravit.io --><svg xmlns="http://www.w3.org/2000/svg" xmlns:xlink="http://www.w3.org/1999/xlink" style="isolation:isolate" viewBox="0 0 400 400" width="400" height="400"><defs><clipPath id="_clipPath_v3YRMNGjDKGOhkYfbCRj0CQ699aV5jGy"><rect width="400" height="400"/></clipPath></defs><g clip-path="url(#_clipPath_v3YRMNGjDKGOhkYfbCRj0CQ699aV5jGy)"><g style="isolation:isolate" id="bottomright"><rect x="235" y="200" width="130" height="200" transform="matrix(0,-1,1,0,0,600)" fill="rgb(246,172,65)"/><rect x="235" y="200" width="130" height="200" transform="matrix(1,0,0,1,0,0)" fill="none" vector-effect="non-scaling-stroke" stroke-width="30" stroke="rgb(59,59,59)" stroke-linejoin="miter" stroke-linecap="square" stroke-miterlimit="3" style="mix-blend-mode:soft-light;"/><rect x="235" y="200" width="130" height="200" transform="matrix(1,0,0,1,0,0)" fill="rgb(246,172,65)"/></g><g style="isolation:isolate" id="topright"><rect x="235" y="0" width="130" height="200" transform="matrix(1,0,0,1,0,0)" fill="rgb(246,172,65)"/><rect x="235" y="0" width="130" height="200" transform="matrix(0,-1,1,0,200,400)" fill="none" vector-effect="non-scaling-stroke" stroke-width="30" stroke="rgb(59,59,59)" stroke-linejoin="miter" stroke-linecap="square" stroke-miterlimit="3" style="mix-blend-mode:soft-light;"/><rect x="235" y="0" width="130" height="200" transform="matrix(0,-1,1,0,200,400)" fill="rgb(246,172,65)"/></g><g style="isolation:isolate" id="topleft"><rect x="35" y="0" width="130" height="200" transform="matrix(0,-1,1,0,0,200)" fill="rgb(246,172,65)"/><rect x="35" y="0" width="130" height="200" transform="matrix(1,0,0,1,0,0)" fill="none" vector-effect="non-scaling-stroke" stroke-width="30" stroke="rgb(59,59,59)" stroke-linejoin="miter" stroke-linecap="square" stroke-miterlimit="3" style="mix-blend-mode:soft-light;"/><rect x="35" y="0" width="130" height="200" transform="matrix(1,0,0,1,0,0)" fill="rgb(246,172,65)"/></g><g style="isolation:isolate" id="bottomleft"><rect x="35" y="200" width="130" height="200" transform="matrix(1,0,0,1,0,0)" fill="rgb(246,172,65)"/><rect x="35" y="200" width="130" height="200" transform="matrix(0,-1,1,0,-200,400)" fill="none" vector-effect="non-scaling-stroke" stroke-width="30" stroke="rgb(59,59,59)" stroke-linejoin="miter" stroke-linecap="square" stroke-miterlimit="3" style="mix-blend-mode:soft-light;"/><rect x="43.5" y="191.5" width="130" height="217" transform="matrix(0,-1,1,0,-191.5,408.5)" fill="rgb(246,172,65)"/></g></g></svg>